<?xml version="1.0" standalone="no"?>
<!DOCTYPE svg PUBLIC "-//W3C//DTD SVG 20010904//EN"
 "http://www.w3.org/TR/2001/REC-SVG-20010904/DTD/svg10.dtd">
<svg version="1.0" xmlns="http://www.w3.org/2000/svg"
 width="512.000000pt" height="512.000000pt" viewBox="0 0 512.000000 512.000000"
 preserveAspectRatio="xMidYMid meet">

<g transform="translate(0.000000,512.000000) scale(0.100000,-0.100000)"
fill="#000000" stroke="none">
<path d="M0 2560 l0 -2560 2560 0 2560 0 0 2560 0 2560 -2560 0 -2560 0 0
-2560z m1913 325 c93 -16 243 -60 252 -74 4 -8 -143 -271 -164 -294 -4 -4 -43
2 -87 14 -111 30 -297 30 -409 0 -306 -81 -535 -310 -616 -616 -30 -112 -30
-298 0 -410 39 -148 108 -271 214 -382 l58 -61 -87 -151 -87 -151 -38 30 c-60
48 -174 176 -224 250 -67 100 -140 261 -171 375 -26 93 -28 113 -28 295 0 179
2 203 27 293 123 457 491 799 949 882 100 18 307 18 411 0z m1748 -5 c93 -19
209 -56 209 -66 0 -2 -38 -71 -85 -153 l-85 -148 -72 20 c-95 25 -267 27 -356
4 -238 -63 -362 -216 -452 -559 l-28 -108 394 0 394 0 0 -160 0 -160 -437 -2
-436 -3 -34 -130 c-88 -343 -172 -509 -336 -661 -114 -106 -218 -161 -385
-205 -100 -27 -330 -37 -439 -19 -87 14 -243 56 -257 70 -9 9 9 44 110 216
l54 91 67 -19 c89 -26 270 -29 361 -5 236 62 363 218 452 559 l28 108 -394 0
-394 0 0 160 0 160 437 2 436 3 43 165 c23 91 54 196 68 233 129 344 369 550
709 612 115 21 312 18 428 -5z m630 -369 c151 -169 258 -389 296 -606 23 -133
14 -357 -21 -488 -55 -211 -158 -390 -315 -548 -158 -157 -337 -260 -548 -315
-131 -35 -355 -44 -489 -20 -98 17 -250 61 -259 75 -4 8 143 271 164 294 4 4
43 -2 87 -14 111 -30 297 -30 409 0 306 81 535 310 616 616 16 61 21 109 21
205 0 144 -20 238 -77 357 -44 94 -85 153 -158 230 l-59 62 47 83 c26 46 65
114 87 151 l39 68 60 -52 c32 -28 78 -72 100 -98z"/>
</g>
</svg>
