<?xml version="1.0" standalone="no"?>
<!DOCTYPE svg PUBLIC "-//W3C//DTD SVG 20010904//EN"
 "http://www.w3.org/TR/2001/REC-SVG-20010904/DTD/svg10.dtd">
<svg version="1.0" xmlns="http://www.w3.org/2000/svg"
 width="300.000000pt" height="300.000000pt" viewBox="0 0 300.000000 300.000000"
 preserveAspectRatio="xMidYMid meet">

<g transform="translate(0.000000,300.000000) scale(0.100000,-0.100000)"
fill="#000000" stroke="none">
<path d="M367 1823 c-9 -8 -9 -596 -1 -617 5 -12 21 -16 75 -16 l69 0 0 103 0
103 40 39 c34 33 42 37 50 25 6 -8 44 -72 86 -142 l75 -128 81 0 c70 0 79 2
74 16 -4 9 -54 95 -111 191 -58 96 -105 181 -105 189 0 9 22 39 49 67 99 104
150 162 151 170 0 4 -39 7 -87 6 l-88 -1 -105 -120 -105 -120 -3 121 -3 121
-68 0 c-37 0 -71 -3 -74 -7z"/>
<path d="M1516 1659 c-35 -8 -87 -40 -123 -75 -34 -33 -53 -90 -53 -159 0 -87
22 -138 79 -187 112 -96 300 -72 380 49 95 142 16 337 -150 372 -58 13 -79 13
-133 0z m124 -124 c51 -26 77 -114 49 -168 -27 -51 -51 -67 -102 -67 -42 0
-53 4 -78 31 -25 27 -29 39 -29 91 0 57 2 63 36 94 40 38 77 44 124 19z"/>
<path d="M984 1647 c-2 -7 -3 -111 -2 -232 l3 -220 68 -3 67 -3 0 115 c0 175
29 226 130 226 l40 0 0 66 0 67 -47 -6 c-38 -4 -54 -12 -80 -41 -18 -20 -35
-36 -38 -36 -3 0 -5 18 -5 40 l0 40 -65 0 c-44 0 -67 -4 -71 -13z"/>
<path d="M1917 1654 c-4 -4 -7 -110 -7 -236 l0 -228 70 0 70 0 0 145 c0 186
12 215 90 215 32 0 57 -20 71 -57 5 -13 9 -87 9 -164 l0 -139 71 0 71 0 -4
173 c-4 191 -14 229 -71 269 -46 33 -135 37 -181 8 -20 -12 -36 -26 -36 -31 0
-22 -19 -6 -22 19 -3 26 -6 27 -63 30 -34 2 -64 0 -68 -4z"/>
<path d="M2490 1369 c-36 -14 -60 -49 -60 -89 0 -109 159 -125 185 -20 16 68
-60 134 -125 109z"/>
</g>
</svg>
