<?xml version="1.0" standalone="no"?>
<!DOCTYPE svg PUBLIC "-//W3C//DTD SVG 20010904//EN"
 "http://www.w3.org/TR/2001/REC-SVG-20010904/DTD/svg10.dtd">
<svg version="1.0" xmlns="http://www.w3.org/2000/svg"
 width="1200.000000pt" height="630.000000pt" viewBox="0 0 1200.000000 630.000000"
 preserveAspectRatio="xMidYMid meet">

<g transform="translate(0.000000,630.000000) scale(0.100000,-0.100000)"
fill="#000000" stroke="none">
<path d="M0 3150 l0 -3150 6000 0 6000 0 0 3150 0 3150 -6000 0 -6000 0 0
-3150z m6560 640 c0 -649 2 -1180 5 -1180 2 0 646 531 1431 1180 l1426 1180
696 0 c688 0 696 0 677 -19 -11 -11 -654 -544 -1430 -1185 l-1409 -1166 -1253
0 -1253 0 0 1180 c0 649 -2 1180 -5 1180 -3 0 -648 -531 -1432 -1180 l-1427
-1180 -695 0 -696 0 25 24 c14 13 657 547 1429 1185 l1404 1161 1254 0 1253 0
0 -1180z m386 -1915 c86 -176 160 -324 165 -329 5 -6 9 117 9 322 l0 332 80 0
80 0 0 -425 0 -426 -116 3 -116 3 -161 333 -162 334 -3 -336 -2 -336 -80 0
-80 0 0 425 0 426 116 -3 115 -3 155 -320z m2044 -100 l0 -425 -70 0 -70 0 0
42 0 42 -32 -33 c-52 -53 -84 -66 -168 -66 -58 0 -84 5 -116 22 -203 108 -204
491 -1 594 51 27 142 35 193 19 21 -7 56 -25 77 -42 l37 -29 0 151 0 150 75 0
75 0 0 -425z m1560 280 l0 -95 55 0 55 0 0 -55 0 -55 -55 0 -55 0 0 -169 c0
-192 3 -201 71 -201 l39 0 0 -65 0 -65 -52 0 c-68 0 -127 16 -157 43 -45 41
-51 73 -51 272 l0 185 -50 0 -50 0 0 55 0 55 50 0 50 0 0 95 0 95 75 0 75 0 0
-95z m-2780 -94 c77 -29 125 -73 162 -149 30 -61 33 -75 33 -157 -1 -112 -25
-174 -95 -239 -69 -65 -108 -79 -215 -80 -79 -1 -97 2 -147 27 -69 34 -121 91
-149 166 -29 77 -24 214 10 281 40 78 108 135 191 161 49 15 158 10 210 -10z
m1745 0 c50 -22 91 -69 105 -119 5 -20 10 -139 10 -264 l0 -228 -75 0 -75 0 0
203 c0 172 -3 207 -18 237 -28 58 -100 77 -162 45 -55 -28 -60 -53 -60 -280
l0 -205 -80 0 -80 0 0 305 0 305 75 0 75 0 0 -32 0 -32 28 27 c15 14 43 33 62
41 49 21 146 20 195 -3z m633 -16 c88 -48 142 -152 142 -272 l0 -53 -225 0
c-173 0 -225 -3 -225 -12 1 -25 38 -94 64 -118 24 -22 37 -25 98 -25 68 0 70
1 104 38 33 36 36 37 105 37 l71 0 -7 -27 c-9 -40 -49 -97 -87 -126 -112 -85
-307 -71 -410 30 -59 57 -82 122 -83 228 0 122 22 183 89 251 68 67 116 84
226 81 72 -3 93 -7 138 -32z m-1778 -44 l0 -68 -50 -7 c-62 -8 -115 -51 -130
-104 -5 -20 -10 -112 -10 -204 l0 -168 -75 0 -75 0 0 305 0 305 70 0 70 0 0
-47 0 -48 21 33 c27 42 82 71 137 72 l42 0 0 -69z"/>
<path d="M8622 1834 c-18 -10 -45 -37 -60 -63 -56 -96 -26 -251 58 -294 43
-22 111 -18 149 10 94 69 94 267 0 336 -37 27 -106 32 -147 11z"/>
<path d="M7569 1827 c-50 -33 -74 -88 -74 -172 0 -118 49 -184 145 -193 57 -5
98 14 137 65 23 30 28 48 31 109 5 91 -9 133 -59 178 -34 32 -45 36 -93 36
-38 0 -62 -6 -87 -23z"/>
<path d="M9940 1853 c-35 -13 -90 -81 -90 -113 0 -6 50 -10 144 -10 l145 0 -8
28 c-12 42 -31 68 -62 86 -26 15 -98 20 -129 9z"/>
</g>
</svg>
