<svg id="elgxVBvAr6t1" xmlns="http://www.w3.org/2000/svg" xmlns:xlink="http://www.w3.org/1999/xlink" viewBox="0 0 1920 1080" shape-rendering="geometricPrecision" text-rendering="geometricPrecision" project-id="7bb9385f956448c6821c671c16898fb9" export-id="38808b55eff649638afa011d3a06d14d" cached="false"><defs><linearGradient id="elgxVBvAr6t3-fill" x1="240.99" y1="321.57" x2="148.99" y2="71.57" spreadMethod="pad" gradientUnits="userSpaceOnUse" gradientTransform="translate(0 0)"><stop id="elgxVBvAr6t3-fill-0" offset="0%" stop-color="#3e7a3b"/><stop id="elgxVBvAr6t3-fill-1" offset="71%" stop-color="#76bc77"/></linearGradient><linearGradient id="elgxVBvAr6t4-fill" x1="139.42" y1="171.34" x2="265.38" y2="90.18" spreadMethod="pad" gradientUnits="userSpaceOnUse" gradientTransform="translate(0 0)"><stop id="elgxVBvAr6t4-fill-0" offset="7%" stop-color="#ffdd85"/><stop id="elgxVBvAr6t4-fill-1" offset="33%" stop-color="#ffd561"/><stop id="elgxVBvAr6t4-fill-2" offset="82%" stop-color="#ffc361"/></linearGradient><linearGradient id="elgxVBvAr6t5-fill" x1="223.75" y1="79.93" x2="266.08" y2="222.66" spreadMethod="pad" gradientUnits="userSpaceOnUse" gradientTransform="translate(0 0)"><stop id="elgxVBvAr6t5-fill-0" offset="4%" stop-color="#c4d674"/><stop id="elgxVBvAr6t5-fill-1" offset="97%" stop-color="#a3c653"/></linearGradient><linearGradient id="elgxVBvAr6t7-fill" x1="-189.289998" y1="390.970005" x2="-51.309998" y2="347.890005" spreadMethod="pad" gradientUnits="userSpaceOnUse" gradientTransform="translate(0 0)"><stop id="elgxVBvAr6t7-fill-0" offset="4%" stop-color="#7c77fc"/><stop id="elgxVBvAr6t7-fill-1" offset="100%" stop-color="#9d9df5"/></linearGradient><linearGradient id="elgxVBvAr6t8-fill" x1="-111.199998" y1="419.690007" x2="55.870002" y2="379.660007" spreadMethod="pad" gradientUnits="userSpaceOnUse" gradientTransform="translate(0 0)"><stop id="elgxVBvAr6t8-fill-0" offset="12%" stop-color="#d186fc"/><stop id="elgxVBvAr6t8-fill-1" offset="82%" stop-color="#e99cfc"/></linearGradient><linearGradient id="elgxVBvAr6t9-fill" x1="0.070001" y1="450.069995" x2="121.260001" y2="410.199995" spreadMethod="pad" gradientUnits="userSpaceOnUse" gradientTransform="translate(0 0)"><stop id="elgxVBvAr6t9-fill-0" offset="13%" stop-color="#fc81a1"/><stop id="elgxVBvAr6t9-fill-1" offset="86%" stop-color="#fc8aa8"/></linearGradient><linearGradient id="elgxVBvAr6t12-fill" x1="267.25" y1="59.66" x2="308.61" y2="133.81" spreadMethod="pad" gradientUnits="userSpaceOnUse" gradientTransform="translate(0 0)"><stop id="elgxVBvAr6t12-fill-0" offset="0%" stop-color="#bedfed"/><stop id="elgxVBvAr6t12-fill-1" offset="42%" stop-color="#8bb4d7"/><stop id="elgxVBvAr6t12-fill-2" offset="63%" stop-color="#77a3ce"/><stop id="elgxVBvAr6t12-fill-3" offset="100%" stop-color="#7474c1"/></linearGradient><linearGradient id="elgxVBvAr6t14-fill" x1="135.08" y1="97.81" x2="226.34" y2="332.12" spreadMethod="pad" gradientUnits="userSpaceOnUse" gradientTransform="translate(0 0)"><stop id="elgxVBvAr6t14-fill-0" offset="7%" stop-color="#ef8d2c"/><stop id="elgxVBvAr6t14-fill-1" offset="100%" stop-color="#e0731f"/></linearGradient><linearGradient id="elgxVBvAr6t16-fill" x1="-40.75" y1="-104.61" x2="47.25" y2="121.31" spreadMethod="pad" gradientUnits="userSpaceOnUse" gradientTransform="translate(0 0)"><stop id="elgxVBvAr6t16-fill-0" offset="0%" stop-color="#fcba79"/><stop id="elgxVBvAr6t16-fill-1" offset="100%" stop-color="#ef8d2c"/></linearGradient><linearGradient id="elgxVBvAr6t17-fill" x1="259.3" y1="266.94" x2="216.3" y2="131.94" spreadMethod="pad" gradientUnits="userSpaceOnUse" gradientTransform="translate(0 0)"><stop id="elgxVBvAr6t17-fill-0" offset="20%" stop-color="#e07838"/><stop id="elgxVBvAr6t17-fill-1" offset="100%" stop-color="#c95f1c"/></linearGradient><linearGradient id="elgxVBvAr6t18-fill" x1="253.96" y1="302.6" x2="185.46" y2="108.1" spreadMethod="pad" gradientUnits="userSpaceOnUse" gradientTransform="translate(0 0)"><stop id="elgxVBvAr6t18-fill-0" offset="7%" stop-color="#ef8d2c"/><stop id="elgxVBvAr6t18-fill-1" offset="100%" stop-color="#e0731f"/></linearGradient><linearGradient id="elgxVBvAr6t19-fill" x1="191.69" y1="144.68" x2="238.81" y2="265.67" spreadMethod="pad" gradientUnits="userSpaceOnUse" gradientTransform="translate(0 0)"><stop id="elgxVBvAr6t19-fill-0" offset="0%" stop-color="#fcba79"/><stop id="elgxVBvAr6t19-fill-1" offset="100%" stop-color="#f49e4a"/></linearGradient><linearGradient id="elgxVBvAr6t23-fill" x1="147.94" y1="177.86" x2="213.4" y2="376.08" spreadMethod="pad" gradientUnits="userSpaceOnUse" gradientTransform="translate(0 0)"><stop id="elgxVBvAr6t23-fill-0" offset="0%" stop-color="#bbc9e7"/><stop id="elgxVBvAr6t23-fill-1" offset="100%" stop-color="#828db8"/></linearGradient><linearGradient id="elgxVBvAr6t24-fill" x1="142.01" y1="169.2" x2="209.68" y2="352.87" spreadMethod="pad" gradientUnits="userSpaceOnUse" gradientTransform="translate(0 0)"><stop id="elgxVBvAr6t24-fill-0" offset="1%" stop-color="#e8eefa"/><stop id="elgxVBvAr6t24-fill-1" offset="100%" stop-color="#acb8de"/></linearGradient><linearGradient id="elgxVBvAr6t27-fill" x1="107.49" y1="320.68" x2="202.79" y2="283" spreadMethod="pad" gradientUnits="userSpaceOnUse" gradientTransform="translate(0 0)"><stop id="elgxVBvAr6t27-fill-0" offset="0%" stop-color="#8088ac"/><stop id="elgxVBvAr6t27-fill-1" offset="100%" stop-color="#4e5a8a"/></linearGradient><linearGradient id="elgxVBvAr6t28-fill" x1="106.48" y1="318.13" x2="201.78" y2="280.45" spreadMethod="pad" gradientUnits="userSpaceOnUse" gradientTransform="translate(0 0)"><stop id="elgxVBvAr6t28-fill-0" offset="18%" stop-color="#6f7695"/><stop id="elgxVBvAr6t28-fill-1" offset="100%" stop-color="#414b73"/></linearGradient><linearGradient id="elgxVBvAr6t29-fill" x1="206.19" y1="-1.2" x2="304.83" y2="297.5" spreadMethod="pad" gradientUnits="userSpaceOnUse" gradientTransform="translate(0 0)"><stop id="elgxVBvAr6t29-fill-0" offset="0%" stop-color="#d3dbf0"/><stop id="elgxVBvAr6t29-fill-1" offset="100%" stop-color="#b1b2dd"/></linearGradient><linearGradient id="elgxVBvAr6t30-fill" x1="193.73" y1="-4.82" x2="295.8" y2="272.22" spreadMethod="pad" gradientUnits="userSpaceOnUse" gradientTransform="translate(0 0)"><stop id="elgxVBvAr6t30-fill-0" offset="1%" stop-color="#e8eefa"/><stop id="elgxVBvAr6t30-fill-1" offset="100%" stop-color="#edefff"/></linearGradient><linearGradient id="elgxVBvAr6t32-fill" x1="282.05" y1="217.66" x2="182.68" y2="11.17" spreadMethod="pad" gradientUnits="userSpaceOnUse" gradientTransform="translate(0 0)"><stop id="elgxVBvAr6t32-fill-0" offset="29%" stop-color="rgba(245,255,255,0.1)"/><stop id="elgxVBvAr6t32-fill-1" offset="81%" stop-color="rgba(245,255,255,0.5)"/></linearGradient></defs><g transform="translate(1286.279577 412.501754)"><path d="M119.54,119.54c-36.418677,36.417156-43.836436,92.755198-18.085263,137.357959s78.250052,66.348243,127.997681,53.017727s84.339103-58.412975,84.337582-109.915686L200,200Z" transform="translate(-309.83691-240.655394)" fill="url(#elgxVBvAr6t3-fill)"/><path d="M200,86.21c-30.186526-.038802-59.143418,11.95639-80.46,33.33L200,200Z" transform="translate(-309.838107-237.321888)" fill="url(#elgxVBvAr6t4-fill)"/><path d="M200,86.21v113.79h113.79c0-30.178983-11.988554-59.121915-33.328318-80.461679s-50.282696-33.328321-80.461682-33.328321Z" transform="translate(-309.838107-237.321888)" fill="url(#elgxVBvAr6t5-fill)"/></g><g transform="translate(699.490395 174.007443)"><rect width="90.21" height="50" rx="6.96" ry="6.96" transform="matrix(0 1-1 0 156.48 240.8)" fill="url(#elgxVBvAr6t7-fill)"/><rect width="132.66" height="50" rx="6.96" ry="6.96" transform="matrix(0 1-1 0 228.4 198.33)" fill="url(#elgxVBvAr6t8-fill)"/><rect width="174.92" height="50" rx="6.96" ry="6.96" transform="matrix(0 1-1 0 300.33 156.08)" fill="url(#elgxVBvAr6t9-fill)"/><g><line x1="109.02" y1="198.34" x2="278.76" y2="101.97" fill="none" stroke="#80a6d1" stroke-width="15" stroke-linecap="round" stroke-miterlimit="10"/><path d="M307.39,79.4L254.67,76c-2.204589-.128729-4.301691.963969-5.459311,2.844579s-1.188616,4.245112-.080689,6.155421l30.09,51.13c1.131186,1.897524,3.213571,3.019963,5.420499,2.921738s4.181362-1.401224,5.139501-3.391738l22.63-47.74c.834692-1.790954.734107-3.87805-.268942-5.580436s-2.779956-2.801789-4.751058-2.939564Z" fill="url(#elgxVBvAr6t12-fill)"/></g></g><g transform="translate(962.210261 305.017461)"><path d="M216.08,85.39h-33.91c-45.14,0-81.73,51.31-81.73,114.61s36.56,114.61,81.73,114.61h33.91Z" fill="url(#elgxVBvAr6t14-fill)"/><g><ellipse rx="81.73" ry="114.61" transform="translate(217.83 200)" fill="url(#elgxVBvAr6t16-fill)"/></g><path d="M280.12,200c0-48.93-26.43-83-50.16-83h-13.96v166h14c23.68,0,50.12-34.07,50.12-83Z" fill="url(#elgxVBvAr6t17-fill)"/><path d="M217.83,283c-23.72,0-50.15-34.1-50.15-83s26.43-83,50.15-83s50.17,34.07,50.17,83-26.45,83-50.17,83Z" fill="url(#elgxVBvAr6t18-fill)"/><path d="M229.84,197c7.07-3,10-12.45,10-19.36.11-13.21-5.52-19.5-11.61-21.44v-16h-8.73v15.33h-5.76v-15.23h-8.74v15.16h-13.07v12.22h3.07c1.87,0,3.07.69,3.07,6.22v50.94c0,7.84-1.87,7.38-3.07,7.38h-3.07v11.46h13.07v15.16h8.74v-15.16h5.76v15h8.74v-16c7.07-1.89,10.8-6.73,12.95-16.68c2.93-13.6-3.19-27.66-11.35-29Zm-2.54-15.8c-.53,10.68-7.12,10-16.55,10v-21.52c8.45-.15,5.43-.15,8.45-.15c3.7,0,8.57,2.19,8.1,11.67Zm-15.56,49.28c-.54,0-1-.76-1-1.71v-24.3c8.91-.19,5.72-.19,8.91-.19c3.89,0,9,2.65,8.54,14.12-.52,12.48-7.03,12.12-16.45,12.08Z" fill="url(#elgxVBvAr6t19-fill)"/></g><g style="isolation:isolate" transform="translate(781.290419 310.433291)"><g><g><path d="M220.11,378.34L28.16,264c-2.47-1.47-3.49-3.13-3.48-5.31c0-.72,0-2.83,0-4.35.216584-1.405559.925387-2.688491,2-3.62l102.9-59.29c4.14-2.57,11.1-2.5,15.53.14l191,111.34c1.37.82,3.77,1.7,4.33,2.72.41.74.13,4.56.11,5.32c0,1.59-1,3.15-3,4.35L235.64,378.48c-4.14,2.52-11.1,2.52-15.53-.14Z" fill="url(#elgxVBvAr6t23-fill)"/><path d="M220.11,372.76l-192-114.3c-4.44-2.64-4.68-6.86-.53-9.43l101.94-63.15c4.14-2.57,11.1-2.5,15.53.14l192,114.3c4.44,2.64,4.68,6.86.53,9.43L235.64,372.9c-4.14,2.56-11.1,2.5-15.53-.14Z" fill="url(#elgxVBvAr6t24-fill)"/><path d="M302.17,314.18L289,306.32c-.46-.27-.48-.71-.05-1l9.63-6c.499551-.268457,1.100449-.268457,1.6,0l13.21,7.86c.46.27.48.71.05,1l-9.63,6c-.510035.28302-1.129965.28302-1.64,0Zm-20.64-12.29L268.33,294c-.46-.27-.48-.71-.05-1l9.63-6c.499551-.268457,1.100449-.268457,1.6,0l13.2,8c.46.27.48.71.05,1l-9.63,6c-.515098.231242-1.111652.189971-1.59-.11ZM260.9,289.6l-13.21-7.86c-.46-.27-.48-.71-.05-1l9.63-6c.499551-.268457,1.100449-.268457,1.6,0l13.21,7.86c.46.27.48.71.05,1l-9.63,6c-.499551.268457-1.100449.268457-1.6,0Zm-20.64-12.29l-13.21-7.86c-.46-.27-.48-.71-.05-1l9.63-6c.499551-.268457,1.100449-.268457,1.6,0l13.21,7.86c.46.27.48.71.05,1l-9.63,6c-.499551.268457-1.100449.268457-1.6,0ZM219.62,265l-13.21-7.86c-.46-.27-.48-.71-.05-1l9.63-6c.499551-.268457,1.100449-.268457,1.6,0L230.8,258c.46.27.48.71.05,1l-9.63,6c-.499551.268457-1.100449.268457-1.6,0ZM199,252.74l-13.21-7.86c-.46-.27-.48-.71-.05-1l9.63-6c.499551-.268457,1.100449-.268457,1.6,0l13.21,7.86c.46.27.48.71.05,1l-9.63,6c-.499551.268457-1.100449.268457-1.6,0Zm-20.64-12.29l-13.21-7.86c-.46-.27-.48-.71-.05-1l9.63-6c.499551-.268457,1.100449-.268457,1.6,0l13.21,7.86c.46.27.48.71.05,1l-9.63,6c-.502188.272054-1.107812.272054-1.61,0Zm-20.64-12.29l-13.21-7.86c-.46-.27-.48-.71-.05-1l9.63-6c.499551-.268457,1.100449-.268457,1.6,0l13.21,7.86c.46.27.48.71.05,1l-9.63,6c-.502188.272054-1.107812.272054-1.61,0Zm-20.64-12.29L123.87,208c-.46-.27-.48-.71-.05-1l9.63-6c.499551-.268457,1.100449-.268457,1.6,0l13.21,7.86c.46.27.48.71.05,1l-9.63,6c-.497871.271585-1.098773.275341-1.6.01Zm170,83.26l-13.21-7.86c-.46-.27-.48-.71-.05-1l2.31-1.43c.499551-.268457,1.100449-.268457,1.6,0l13.21,7.86c.46.27.48.71.05,1l-2.31,1.43c-.520341.298056-1.159659.298056-1.68,0ZM286.4,286.84L273.19,279c-.46-.27-.48-.71-.05-1l2.31-1.43c.499551-.268457,1.100449-.268457,1.6,0l13.21,7.86c.46.27.48.71.05,1L288,286.86c-.502901.262237-1.103811.254725-1.6-.02Zm-20.64-12.29l-13.21-7.86c-.46-.27-.48-.71-.05-1l2.31-1.43c.499551-.268457,1.100449-.268457,1.6,0l13.21,7.86c.46.27.48.71.05,1l-2.31,1.43c-.499551.268457-1.100449.268457-1.6,0Zm-20.64-12.29l-13.21-7.86c-.46-.27-.48-.71-.05-1l2.31-1.43c.499551-.268457,1.100449-.268457,1.6,0L249,259.88c.46.27.48.71.05,1l-2.31,1.43c-.510604.256609-1.116303.237798-1.61-.05ZM224.49,250l-13.21-7.86c-.46-.27-.48-.71-.05-1l2.31-1.43c.499551-.268457,1.100449-.268457,1.6,0l13.21,7.86c.46.27.48.71.05,1L226.09,250c-.499551.268457-1.100449.268457-1.6,0Zm-20.64-12.29l-13.21-7.86c-.46-.27-.48-.71-.05-1l2.31-1.43c.499551-.268457,1.100449-.268457,1.6,0l13.21,7.86c.46.27.48.71.05,1l-2.31,1.43c-.502901.262237-1.103811.254725-1.6-.02ZM183.22,225.4L170,217.53c-.46-.27-.48-.71-.05-1l2.31-1.43c.499551-.268457,1.100449-.268457,1.6,0l13.21,7.9c.46.27.48.71.05,1l-2.31,1.43c-.501888.255567-1.09811.244318-1.59-.03Zm-20.64-12.29l-13.21-7.86c-.46-.27-.48-.71-.05-1l2.31-1.43c.499551-.268457,1.100449-.268457,1.6,0l13.21,7.86c.46.27.48.71.05,1l-2.31,1.43c-.499551.268457-1.100449.268457-1.6,0Zm-17.39-11.29l2.31-1.43c.43-.26.4-.7-.05-1l-5-2.95c-.499551-.268457-1.100449-.268457-1.6,0l-2.31,1.43c-.43.26-.4.7.05,1l5,2.95c.499551.268457,1.100449.268457,1.6,0ZM318,304.72l2.31-1.43c.43-.26.4-.7-.05-1l-5-2.95c-.499551-.268457-1.100449-.268457-1.6,0l-2.31,1.43c-.43.26-.4.7.05,1l5,2.95c.499551.268457,1.100449.268457,1.6,0Zm-59.81,2.62L245,299.47c-.46-.27-.48-.71-.05-1l9.63-6c.499551-.268457,1.100449-.268457,1.6,0l13.21,7.86c.46.27.48.71.05,1l-9.63,6c-.507431.279336-1.122569.279336-1.63,0ZM237.54,295l-13.21-7.86c-.46-.27-.48-.71-.05-1l9.63-6c.499551-.268457,1.100449-.268457,1.6,0L248.72,288c.46.27.48.71.05,1l-9.63,6c-.499551.268457-1.100449.268457-1.6,0ZM216.9,282.76l-13.21-7.86c-.46-.27-.48-.71-.05-1l9.63-6c.499551-.268457,1.100449-.268457,1.6,0l13.21,7.86c.46.27.48.71.05,1l-9.63,6c-.499551.268457-1.100449.268457-1.6,0Zm-20.64-12.29l-13.21-7.86c-.46-.27-.48-.71-.05-1l9.63-6c.499551-.268457,1.100449-.268457,1.6,0l13.21,7.86c.46.27.48.71.05,1l-9.63,6c-.496903.264889-1.093097.264889-1.59,0Zm-20.64-12.29l-13.21-7.86c-.46-.27-.48-.71-.05-1l9.63-6c.499551-.268457,1.100449-.268457,1.6,0l13.21,7.86c.46.27.48.71.05,1l-9.63,6c-.496903.264889-1.093097.264889-1.59,0ZM155,245.89L141.79,238c-.46-.27-.48-.71-.05-1l9.63-6c.499551-.268457,1.100449-.268457,1.6,0l13.2,8c.46.27.48.71.05,1l-9.63,6c-.515098.231242-1.111652.189971-1.59-.11Zm-19.87-12.77l9.63-6c.43-.26.4-.7-.05-1L119.12,211c-.499551-.268457-1.100449-.268457-1.6,0l-9.63,6c-.43.26-.4.7.05,1l25.59,15.24c.517875.234845,1.119136.193509,1.6-.11Zm-25.53,23.5l9.63-6c.43-.26.4-.7-.05-1L106.39,242c-.499551-.268457-1.100449-.268457-1.6,0l-9.63,6c-.43.26-.4.7.05,1L108,256.62c.497871.271585,1.098773.275341,1.6.01ZM127.13,268l-12.79-7.62c-.46-.27-.48-.71-.05-1l9.63-6c.499551-.268457,1.100449-.268457,1.6,0L138.31,261c.46.27.48.71.05,1l-9.63,6c-.499551.268457-1.100449.268457-1.6,0ZM256,343.8l9.63-6c.43-.26.4-.7-.05-1L247.2,325.92c-.499551-.268457-1.100449-.268457-1.6,0l-9.63,6c-.43.26-.4.7.05,1l18.37,10.94c.512281.253556,1.118013.230982,1.61-.06Zm-25.73-15.32l9.63-6c.43-.26.4-.7-.05-1l-16.72-10c-.499551-.268457-1.100449-.268457-1.6,0l-9.63,6c-.43.26-.4.7.05,1l16.72,10c.496903.264889,1.093097.264889,1.59,0ZM89.65,244.75l9.63-6c.43-.26.4-.7-.05-1l-12-7.13c-.499551-.268457-1.100449-.268457-1.6,0l-9.63,6c-.43.26-.4.7.05,1l12,7.13c.499551.268457,1.100449.268457,1.6,0Zm198.19,79.31l9.63-6c.43-.26.4-.7-.05-1l-21-12.49c-.499551-.268457-1.100449-.268457-1.6,0l-9.63,6c-.43.26-.4.7.05,1l21,12.49c.499551.268457,1.100449.268457,1.6,0Zm-17.52,9.85l-13.21-7.86c-.46-.27-.48-.71-.05-1l9.63-6c.499551-.268457,1.100449-.268457,1.6,0l13.2,7.95c.46.27.48.71.05,1l-9.63,6c-.511803.23725-1.108238.203489-1.59-.09Zm-20.64-12.29l-13.21-7.86c-.46-.27-.48-.71-.05-1l9.63-6c.499551-.268457,1.100449-.268457,1.6,0l13.21,7.86c.46.27.48.71.05,1l-9.63,6c-.497871.271585-1.098773.275341-1.6.01ZM229,309.34l-13.21-7.86c-.46-.27-.48-.71-.05-1l9.63-6c.499551-.268457,1.100449-.268457,1.6,0l13.21,7.86c.46.27.48.71.05,1l-9.63,6c-.499551.268457-1.100449.268457-1.6,0ZM208.41,297l-13.21-7.86c-.46-.27-.48-.71-.05-1l9.63-6c.499551-.268457,1.100449-.268457,1.6,0L219.59,290c.46.27.48.71.05,1l-9.63,6c-.499551.268457-1.100449.268457-1.6,0Zm-20.64-12.29l-13.21-7.86c-.46-.27-.48-.71-.05-1l9.63-6c.499551-.268457,1.100449-.268457,1.6,0l13.21,7.86c.46.27.48.71.05,1l-9.63,6c-.491119.284216-1.092093.302996-1.6.05Zm-20.64-12.29l-13.21-7.86c-.46-.27-.48-.71-.05-1l9.63-6c.499551-.268457,1.100449-.268457,1.6,0l13.21,7.86c.46.27.48.71.05,1l-9.63,6c-.491119.284216-1.092093.302996-1.6.05ZM146.5,260.18l-13.21-7.86c-.46-.27-.48-.71-.05-1l9.63-6c.499551-.268457,1.100449-.268457,1.6,0l13.21,7.86c.46.27.48.71.05,1l-9.63,6c-.499551.268457-1.100449.268457-1.6,0Zm-20.7-13.25l9.63-6c.43-.26.4-.7-.05-1l-32.19-19.17c-.499551-.268457-1.100449-.268457-1.6,0l-9.63,6c-.43.26-.4.7.05,1l32.19,19.17c.499551.268457,1.100449.268457,1.6,0Zm79.83,66.89l9.63-6c.43-.26.4-.7-.05-1l-70.58-42c-.499551-.268457-1.100449-.268457-1.6,0l-9.63,6c-.43.26-.4.7.05,1l70.58,42c.501227.265341,1.102129.261585,1.6-.01Z" fill="#3f476e"/><path d="M195.14,288.22l.11-.07L208.41,296c.499551.268457,1.100449.268457,1.6,0l9.53-5.9h.05c.46.27.48.71.05,1l-9.63,6c-.499551.268457-1.100449.268457-1.6,0l-13.21-7.86c-.46-.33-.48-.76-.06-1.02Zm20.69,13.26L229,309.34c.499551.268457,1.100449.268457,1.6,0l9.63-6c.43-.26.4-.7-.05-1h-.05l-9.53,5.9c-.499551.268457-1.100449.268457-1.6,0l-13.16-7.83-.11.07c-.38.29-.35.72.1.99Zm-61.91-36.87l13.21,7.86c.499551.268457,1.100449.268457,1.6,0l9.63-6c.43-.26.4-.7-.05-1h-.05l-9.53,5.9c-.499551.268457-1.100449.268457-1.6,0L154,263.57l-.11.07c-.45.26-.42.7.03.97Zm94.79,23.52h-.05l-9.53,5.9c-.499551.268457-1.100449.268457-1.6,0l-13.16-7.83-.11.07c-.43.26-.4.7.05,1L237.54,295c.499551.268457,1.100449.268457,1.6,0l9.63-6c.43-.17.4-.61-.05-.88Zm-86.29-37.81l13.21,7.86c.499551.268457,1.100449.268457,1.6,0l9.63-6c.43-.26.4-.7-.05-1h-.05l-9.53,5.9c-.499551.268457-1.100449.268457-1.6,0l-13.16-7.83-.11.07c-.42.29-.36.68.06,1Zm12.14,26.58l13.21,7.86c.499551.268457,1.100449.268457,1.6,0l9.63-6c.43-.26.4-.7-.05-1h-.05l-9.53,5.9c-.499551.268457-1.100449.268457-1.6,0l-13.16-7.83-.11.07c-.42.29-.39.72.06,1Zm86.29,37.81h-.05l-9.53,5.9c-.499551.268457-1.100449.268457-1.6,0l-13.16-7.83-.11.07c-.43.26-.4.7.05,1l13.21,7.86c.499551.268457,1.100449.268457,1.6,0l9.63-6c.44-.3.42-.71-.04-1.01Zm8.5-14.29h-.05l-9.53,5.9c-.499551.268457-1.100449.268457-1.6,0L245,298.44l-.11.07c-.43.26-.4.7.05,1l13.21,7.86c.499551.268457,1.100449.268457,1.6,0l9.63-6c.45-.25.43-.69-.03-.96ZM141.79,238L155,245.89c.499551.268457,1.100449.268457,1.6,0l9.63-6c.43-.26.4-.7-.05-1h-.05l-9.53,5.9c-.499551.268457-1.100449.268457-1.6,0L141.84,237l-.11.07c-.42.25-.4.69.06.93Zm-8.5,14.29l13.21,7.86c.499551.268457,1.100449.268457,1.6,0l9.63-6c.43-.26.4-.7-.05-1h-.05l-9.53,5.9c-.499551.268457-1.100449.268457-1.6,0l-13.16-7.83-.11.07c-.42.32-.4.71.06,1.03ZM219.62,264l-13.16-7.83-.11.07c-.43.26-.4.7.05,1L219.62,265c.499551.268457,1.100449.268457,1.6,0l9.63-6c.43-.26.4-.7-.05-1h-.05l-9.53,5.9c-.482585.300265-1.083783.33784-1.6.1Zm-75.11-43.7l13.21,7.86c.499551.268457,1.100449.268457,1.6,0l9.63-6c.43-.26.4-.7-.05-1h-.05l-9.53,5.9c-.499551.268457-1.100449.268457-1.6,0l-13.16-7.83-.11.07c-.45.29-.4.7.06,1Zm83.57,55.54h-.05l-9.53,5.9c-.499551.268457-1.100449.268457-1.6,0l-13.16-7.83-.11.07c-.43.26-.4.7.05,1l13.21,7.86c.499551.268457,1.100449.268457,1.6,0l9.63-6c.44-.3.42-.73-.04-1.01Zm65.75,15.43L307,299.13c.499551.268457,1.100449.268457,1.6,0l2.31-1.43c.43-.26.4-.7-.05-1h-.05l-2.21,1.37c-.499551.268457-1.100449.268457-1.6,0l-13.16-7.83-.11.07c-.38.25-.36.69.1.96ZM199,251.67l-13.16-7.83-.11.07c-.43.26-.4.7.05,1L199,252.74c.499551.268457,1.100449.268457,1.6,0l9.63-6c.43-.26.4-.7-.05-1h-.05l-9.53,5.9c-.494503.277877-1.095428.289144-1.6.03Zm-20.64-12.29l-13.16-7.83-.11.07c-.43.26-.4.7.05,1l13.21,7.86c.499551.268457,1.100449.268457,1.6,0l9.63-6c.43-.26.4-.7-.05-1h-.05l-9.53,5.9c-.499551.268457-1.100449.268457-1.6,0Zm82.55,49.15l-13.16-7.83-.11.07c-.43.26-.4.7.05,1l13.21,7.86c.499551.268457,1.100449.268457,1.6,0l9.63-6c.43-.26.4-.7-.05-1h-.05l-9.53,5.9c-.497871.271585-1.098773.275341-1.6.01Zm31.8,6.47h-.05l-9.53,5.9c-.499551.268457-1.100449.268457-1.6,0L268.38,293l-.11.07c-.43.26-.4.7.05,1l13.21,7.86c.499551.268457,1.100449.268457,1.6,0l9.63-6c.43-.26.41-.69-.05-.93ZM183.06,262.6l13.21,7.86c.499551.268457,1.100449.268457,1.6,0l9.63-6c.43-.26.4-.7-.05-1h-.05l-9.53,5.9c-.499551.268457-1.100449.268457-1.6,0l-13.16-7.83-.11.07c-.42.3-.4.73.06,1Zm57.2,13.64l-13.16-7.83-.11.07c-.43.26-.4.7.05,1l13.21,7.86c.499551.268457,1.100449.268457,1.6,0l9.63-6c.43-.26.4-.7-.05-1h-.05l-9.53,5.9c-.495235.26802-1.091433.27177-1.59.01Zm-.43,45.29h-.05l-9.53,5.9c-.499551.268457-1.100449.268457-1.6,0L212,317.47l-.11.07c-.43.26-.4.7.05,1l16.72,10c.499551.268457,1.100449.268457,1.6,0l9.63-6c.43-.3.4-.73-.05-1ZM215.2,306.87h-.05l-9.53,5.9c-.499551.268457-1.100449.268457-1.6,0l-70.53-42-.11.07c-.43.26-.4.7.05,1l70.58,42c.499551.268457,1.100449.268457,1.6,0l9.63-6c.45-.26.43-.69-.03-.96Zm-76.91-45.8h-.05l-9.53,5.9c-.499551.268457-1.100449.268457-1.6,0l-12.74-7.59-.11.07c-.43.26-.4.7.05,1L127.13,268c.499551.268457,1.100449.268457,1.6,0l9.63-6c.42-.21.4-.65-.06-.92Zm-19.12-11.39h-.05l-9.53,5.9c-.499551.268457-1.100449.268457-1.6,0L95.26,248l-.11.07c-.43.26-.4.7.05,1l12.8,7.55c.499551.268457,1.100449.268457,1.6,0l9.63-6c.43-.22.41-.62-.05-.93Zm146.38,87.17h-.05l-9.53,5.9c-.499551.268457-1.100449.268457-1.6,0l-18.31-10.91-.11.07c-.43.26-.4.7.05,1l18.37,10.94c.499551.268457,1.100449.268457,1.6,0l9.63-6c.4-.29.4-.72-.04-.99Zm-166.33-99h-.05l-9.53,5.9c-.499551.268457-1.100449.268457-1.6,0l-11.92-7.1-.11.07c-.43.26-.4.7.05,1l12,7.13c.499551.268457,1.100449.268457,1.6,0l9.63-6c.42-.33.4-.76-.06-1.04Zm214.12,69.44h-.05l-9.53,5.9c-.499551.268457-1.100449.268457-1.6,0L289,305.28l-.11.07c-.43.26-.4.7.05,1l13.21,7.86c.499551.268457,1.100449.268457,1.6,0l9.63-6c.45-.21.42-.68-.03-.95ZM281.49,327h-.05l-9.53,5.9c-.499551.268457-1.100449.268457-1.6,0L257.16,325l-.11.07c-.43.26-.4.7.05,1l13.21,7.86c.499551.268457,1.100449.268457,1.6,0l9.63-6c.46-.23.41-.67-.05-.93ZM92,227.74l32.19,19.17c.499551.268457,1.100449.268457,1.6,0l9.63-6c.43-.26.4-.7-.05-1h-.05l-9.53,5.9c-.499551.268457-1.100449.268457-1.6,0l-32.12-19.1-.11.07c-.43.22-.4.69.04.96ZM273.19,279l13.21,7.86c.499551.268457,1.100449.268457,1.6,0l2.31-1.43c.43-.26.4-.7-.05-1h-.05L288,285.79c-.499551.268457-1.100449.268457-1.6,0l-13.16-7.83-.11.07c-.42.24-.39.68.06.97Zm24.23,38.15h-.05l-9.53,5.9c-.499551.268457-1.100449.268457-1.6,0l-20.93-12.46-.11.07c-.43.26-.4.7.05,1l21,12.49c.499551.268457,1.100449.268457,1.6,0l9.63-6c.42-.32.4-.75-.06-1.03Zm22.83-14.81h-.05l-2.2,1.31c-.499551.268457-1.100449.268457-1.6,0l-4.9-2.92-.11.07c-.43.26-.4.7.05,1l5,2.95c.499551.268457,1.100449.268457,1.6,0l2.31-1.43c.38-.32.35-.73-.1-1.01ZM231.92,254.4l13.21,7.86c.499551.268457,1.100449.268457,1.6,0l2.31-1.43c.43-.26.4-.7-.05-1h-.05l-2.21,1.37c-.499551.268457-1.100449.268457-1.6,0L232,253.37l-.11.07c-.45.25-.43.69.03.96Zm-20.64-12.29L224.49,250c.499551.268457,1.100449.268457,1.6,0l2.31-1.43c.43-.26.4-.7-.05-1h-.05l-2.21,1.37c-.499551.268457-1.100449.268457-1.6,0l-13.16-7.83-.11.07c-.42.23-.39.66.06.93Zm-20.64-12.29l13.21,7.86c.499551.268457,1.100449.268457,1.6,0l2.31-1.43c.43-.26.4-.7-.05-1h-.05l-2.21,1.37c-.499551.268457-1.100449.268457-1.6,0l-13.16-7.83-.11.07c-.41.26-.39.69.07.96Zm61.91,36.87l13.21,7.86c.499551.268457,1.100449.268457,1.6,0l2.31-1.43c.43-.26.4-.7-.05-1h-.05l-2.21,1.37c-.499551.268457-1.100449.268457-1.6,0l-13.16-7.83-.11.07c-.41.27-.39.69.07.96ZM149.37,205.25l13.21,7.86c.499551.268457,1.100449.268457,1.6,0l2.31-1.43c.43-.26.4-.7-.05-1h-.05l-2.21,1.37c-.499551.268457-1.100449.268457-1.6,0l-13.16-7.83-.11.07c-.42.25-.39.71.06.96ZM123.87,208l13.21,7.86c.499551.268457,1.100449.268457,1.6,0l9.63-6c.43-.26.4-.7-.05-1h-.05l-9.53,5.9c-.499551.268457-1.100449.268457-1.6,0L123.92,207l-.11.07c-.42.23-.4.67.06.93Zm14.77-9.15l5,2.95c.499551.268457,1.100449.268457,1.6,0l2.31-1.43c.43-.26.4-.7-.05-1h-.05l-2.21,1.37c-.499551.268457-1.100449.268457-1.6,0l-4.9-2.92-.11.07c-.47.26-.44.69.01.97Zm-30.7,19l25.59,15.24c.499551.268457,1.100449.268457,1.6,0l9.63-6c.43-.26.4-.7-.05-1h-.05l-9.53,5.9c-.499551.268457-1.100449.268457-1.6,0L108,216.84l-.11.07c-.43.26-.4.69.05.96Zm62.07-.34l13.21,7.86c.499551.268457,1.100449.268457,1.6,0l2.31-1.43c.43-.26.4-.7-.05-1h-.05l-2.21,1.37c-.499551.268457-1.100449.268457-1.6,0l-13.16-7.83-.11.07c-.42.28-.4.71.05.98Z" fill="#2b3252"/><path d="M151.44,323.26l-33.92-20.17c-.47-.28-.49-.72-.06-1l26.69-16.53c.508841-.273795,1.121159-.273795,1.63,0l33.92,20.17c.47.28.49.72.06,1l-26.69,16.53c-.508841.273795-1.121159.273795-1.63,0Z" fill="url(#elgxVBvAr6t27-fill)"/><path d="M117.52,303.09l.37.22L144.15,287c.508841-.273795,1.121159-.273795,1.63,0l33.55,20l.43-.27c.43-.27.41-.71-.06-1l-33.92-20.17c-.508841-.273795-1.121159-.273795-1.63,0L117.47,302.1c-.47.27-.41.71.05.99Z" fill="url(#elgxVBvAr6t28-fill)"/><path d="M338.17,298.32L149.14,185c-4.37-2.62-7-9.48-5.92-15.32l27-143.77c.52-2.77-2.48-2.57-.82-3.67c1.84-1.23,8.42-3.54,10.72-2.16l189,113.33c4.37,2.62,7,9.48,5.92,15.32l-27,143.77c-.64,3.4-5.41,8.36-9.51,8.91-1.66.21,1.47-2-.36-3.09Z" fill="url(#elgxVBvAr6t29-fill)"/><path d="M334,300.51L145,187.18c-4.37-2.62-7-9.48-5.92-15.32L166,28.09c1.1-5.84,5.53-8.46,9.9-5.84L365,135.58c4.37,2.62,7,9.48,5.92,15.32l-27,143.77c-1.14,5.84-5.57,8.46-9.92,5.84Z" fill="url(#elgxVBvAr6t30-fill)"/><path d="M146.38,179.57c-1.327677-.999784-1.971466-2.66743-1.66-4.3l27-143.77c.31-1.64,1.55-2.37,2.78-1.64l189,113.33c1.327677.999784,1.971466,2.66743,1.66,4.3l-27,143.77c-.31,1.64-1.55,2.37-2.78,1.64Z" fill="#3c476e"/><path style="mix-blend-mode:soft-light" d="M338.19,291.26l27-143.77c.311466-1.63257-.332323-3.300216-1.66-4.3l-120-71.92-97,94-1.89,10.05c-.311466,1.63257.332323,3.300216,1.66,4.3l189,113.33c1.33.68,2.58-.05,2.89-1.69Z" fill="url(#elgxVBvAr6t32-fill)"/></g></g></g></svg>
